<mxfile host="app.diagrams.net" modified="2024-05-08T11:05:37.247Z" agent="Mozilla/5.0 (X11; Ubuntu; Linux x86_64; rv:125.0) Gecko/20100101 Firefox/125.0" etag="47rZ6a-P2EBHfvPjJgdU" version="24.3.1" type="device">
  <diagram name="Page-1" id="nlW4adefh3rKMrSbGN7n">
    <mxGraphModel dx="941" dy="528" grid="1" gridSize="10" guides="1" tooltips="1" connect="1" arrows="1" fold="1" page="1" pageScale="1" pageWidth="850" pageHeight="1100" math="0" shadow="0">
      <root>
        <mxCell id="0" />
        <mxCell id="1" parent="0" />
        <mxCell id="h45UAFqmm9q89xoDXfQl-1" value="" style="endArrow=none;dashed=1;html=1;strokeWidth=2;rounded=0;" parent="1" edge="1">
          <mxGeometry width="50" height="50" relative="1" as="geometry">
            <mxPoint x="320" y="600" as="sourcePoint" />
            <mxPoint x="320" y="200" as="targetPoint" />
          </mxGeometry>
        </mxCell>
        <mxCell id="h45UAFqmm9q89xoDXfQl-2" value="" style="endArrow=none;dashed=1;html=1;strokeWidth=2;rounded=0;" parent="1" edge="1">
          <mxGeometry width="50" height="50" relative="1" as="geometry">
            <mxPoint x="520" y="600" as="sourcePoint" />
            <mxPoint x="520" y="199" as="targetPoint" />
          </mxGeometry>
        </mxCell>
        <mxCell id="h45UAFqmm9q89xoDXfQl-5" value="" style="endArrow=classic;html=1;rounded=0;" parent="1" edge="1">
          <mxGeometry width="50" height="50" relative="1" as="geometry">
            <mxPoint x="320" y="260" as="sourcePoint" />
            <mxPoint x="520" y="280" as="targetPoint" />
          </mxGeometry>
        </mxCell>
        <mxCell id="h45UAFqmm9q89xoDXfQl-6" value="" style="endArrow=classic;html=1;rounded=0;" parent="1" edge="1">
          <mxGeometry width="50" height="50" relative="1" as="geometry">
            <mxPoint x="520" y="300" as="sourcePoint" />
            <mxPoint x="320" y="320" as="targetPoint" />
          </mxGeometry>
        </mxCell>
        <mxCell id="h45UAFqmm9q89xoDXfQl-7" value="" style="endArrow=classic;html=1;rounded=0;" parent="1" edge="1">
          <mxGeometry width="50" height="50" relative="1" as="geometry">
            <mxPoint x="320" y="490" as="sourcePoint" />
            <mxPoint x="520" y="510" as="targetPoint" />
          </mxGeometry>
        </mxCell>
        <mxCell id="h45UAFqmm9q89xoDXfQl-18" value="&lt;font style=&quot;font-size: 16px;&quot;&gt;Range&lt;/font&gt;" style="edgeLabel;html=1;align=center;verticalAlign=middle;resizable=0;points=[];" parent="h45UAFqmm9q89xoDXfQl-7" vertex="1" connectable="0">
          <mxGeometry x="-0.0576" y="-1" relative="1" as="geometry">
            <mxPoint x="11" as="offset" />
          </mxGeometry>
        </mxCell>
        <mxCell id="h45UAFqmm9q89xoDXfQl-9" value="" style="endArrow=classic;html=1;rounded=0;" parent="1" edge="1">
          <mxGeometry width="50" height="50" relative="1" as="geometry">
            <mxPoint x="520" y="450" as="sourcePoint" />
            <mxPoint x="320" y="470" as="targetPoint" />
          </mxGeometry>
        </mxCell>
        <mxCell id="h45UAFqmm9q89xoDXfQl-10" value="" style="endArrow=classic;html=1;rounded=0;" parent="1" edge="1">
          <mxGeometry width="50" height="50" relative="1" as="geometry">
            <mxPoint x="320" y="410" as="sourcePoint" />
            <mxPoint x="520" y="430" as="targetPoint" />
          </mxGeometry>
        </mxCell>
        <mxCell id="h45UAFqmm9q89xoDXfQl-11" value="" style="endArrow=classic;html=1;rounded=0;dashed=1;dashPattern=8 8;" parent="1" edge="1">
          <mxGeometry width="50" height="50" relative="1" as="geometry">
            <mxPoint x="520" y="530" as="sourcePoint" />
            <mxPoint x="320" y="550" as="targetPoint" />
          </mxGeometry>
        </mxCell>
        <mxCell id="h45UAFqmm9q89xoDXfQl-14" value="&lt;font style=&quot;font-size: 16px;&quot;&gt;Ping&lt;/font&gt;" style="edgeLabel;html=1;align=center;verticalAlign=middle;resizable=0;points=[];fontSize=16;" parent="1" vertex="1" connectable="0">
          <mxGeometry x="421.00082062511" y="269.9985703596015" as="geometry">
            <mxPoint x="-1" y="1" as="offset" />
          </mxGeometry>
        </mxCell>
        <mxCell id="h45UAFqmm9q89xoDXfQl-15" value="&lt;font style=&quot;font-size: 16px;&quot;&gt;Pong&lt;/font&gt;" style="edgeLabel;html=1;align=center;verticalAlign=middle;resizable=0;points=[];" parent="1" vertex="1" connectable="0">
          <mxGeometry x="418.00082062511" y="304.9985703596015" as="geometry">
            <mxPoint x="2" y="6" as="offset" />
          </mxGeometry>
        </mxCell>
        <mxCell id="h45UAFqmm9q89xoDXfQl-16" value="&lt;font style=&quot;font-size: 16px;&quot;&gt;Poll&lt;/font&gt;" style="edgeLabel;html=1;align=center;verticalAlign=middle;resizable=0;points=[];" parent="1" vertex="1" connectable="0">
          <mxGeometry x="421.00082062511" y="419.9985703596015" as="geometry">
            <mxPoint x="-3" y="3" as="offset" />
          </mxGeometry>
        </mxCell>
        <mxCell id="h45UAFqmm9q89xoDXfQl-17" value="&lt;font style=&quot;font-size: 16px;&quot;&gt;Poll&lt;/font&gt; &lt;font style=&quot;font-size: 16px;&quot;&gt;ACK&lt;/font&gt;" style="edgeLabel;html=1;align=center;verticalAlign=middle;resizable=0;points=[];" parent="1" vertex="1" connectable="0">
          <mxGeometry x="425.00082062511" y="459.9985703596015" as="geometry">
            <mxPoint x="-3" y="3" as="offset" />
          </mxGeometry>
        </mxCell>
        <mxCell id="h45UAFqmm9q89xoDXfQl-19" value="&lt;font style=&quot;font-size: 16px;&quot;&gt;Range&lt;/font&gt; &lt;font style=&quot;font-size: 16px;&quot;&gt;Report&lt;/font&gt;" style="edgeLabel;html=1;align=center;verticalAlign=middle;resizable=0;points=[];" parent="1" vertex="1" connectable="0">
          <mxGeometry x="424.9968811808979" y="540.0036756802019" as="geometry" />
        </mxCell>
        <mxCell id="h45UAFqmm9q89xoDXfQl-20" value="&lt;font style=&quot;font-size: 17px;&quot;&gt;Tag&lt;/font&gt;" style="text;html=1;align=center;verticalAlign=middle;whiteSpace=wrap;rounded=0;fontSize=17;" parent="1" vertex="1">
          <mxGeometry x="290" y="160" width="60" height="30" as="geometry" />
        </mxCell>
        <mxCell id="h45UAFqmm9q89xoDXfQl-21" value="&lt;font style=&quot;font-size: 17px;&quot;&gt;Anchor&lt;/font&gt;" style="text;html=1;align=center;verticalAlign=middle;whiteSpace=wrap;rounded=0;fontSize=17;" parent="1" vertex="1">
          <mxGeometry x="490" y="160" width="60" height="30" as="geometry" />
        </mxCell>
        <mxCell id="piLYaQQvXKSqUHdPzKFF-8" value="" style="endArrow=none;dashed=1;html=1;strokeWidth=2;rounded=0;dashPattern=1 2;strokeColor=#9a9996;" edge="1" parent="1">
          <mxGeometry width="50" height="50" relative="1" as="geometry">
            <mxPoint x="311" y="350" as="sourcePoint" />
            <mxPoint x="311" y="210" as="targetPoint" />
          </mxGeometry>
        </mxCell>
        <mxCell id="piLYaQQvXKSqUHdPzKFF-9" value="Ranging phase" style="text;html=1;align=center;verticalAlign=middle;whiteSpace=wrap;rounded=0;fontColor=#9A9996;fontSize=17;" vertex="1" parent="1">
          <mxGeometry x="353" y="370" width="130" height="30" as="geometry" />
        </mxCell>
        <mxCell id="piLYaQQvXKSqUHdPzKFF-10" value="Discovery phase" style="text;html=1;align=center;verticalAlign=middle;whiteSpace=wrap;rounded=0;fontColor=#9A9996;fontSize=17;" vertex="1" parent="1">
          <mxGeometry x="360" y="210" width="130" height="30" as="geometry" />
        </mxCell>
        <mxCell id="piLYaQQvXKSqUHdPzKFF-11" value="" style="endArrow=none;dashed=1;html=1;strokeWidth=2;rounded=0;dashPattern=1 2;strokeColor=#9a9996;" edge="1" parent="1">
          <mxGeometry width="50" height="50" relative="1" as="geometry">
            <mxPoint x="527" y="350" as="sourcePoint" />
            <mxPoint x="527" y="210" as="targetPoint" />
          </mxGeometry>
        </mxCell>
        <mxCell id="piLYaQQvXKSqUHdPzKFF-12" value="" style="endArrow=none;dashed=1;html=1;strokeWidth=2;rounded=0;dashPattern=1 2;strokeColor=#9a9996;" edge="1" parent="1">
          <mxGeometry width="50" height="50" relative="1" as="geometry">
            <mxPoint x="310" y="350" as="sourcePoint" />
            <mxPoint x="530" y="350" as="targetPoint" />
          </mxGeometry>
        </mxCell>
        <mxCell id="piLYaQQvXKSqUHdPzKFF-13" value="" style="endArrow=none;dashed=1;html=1;strokeWidth=2;rounded=0;dashPattern=1 2;strokeColor=#9a9996;" edge="1" parent="1">
          <mxGeometry width="50" height="50" relative="1" as="geometry">
            <mxPoint x="310" y="210" as="sourcePoint" />
            <mxPoint x="530" y="210" as="targetPoint" />
          </mxGeometry>
        </mxCell>
        <mxCell id="piLYaQQvXKSqUHdPzKFF-14" value="" style="endArrow=none;dashed=1;html=1;strokeWidth=2;rounded=0;dashPattern=1 2;strokeColor=#9a9996;" edge="1" parent="1">
          <mxGeometry width="50" height="50" relative="1" as="geometry">
            <mxPoint x="311" y="560" as="sourcePoint" />
            <mxPoint x="311" y="370" as="targetPoint" />
          </mxGeometry>
        </mxCell>
        <mxCell id="piLYaQQvXKSqUHdPzKFF-15" value="" style="endArrow=none;dashed=1;html=1;strokeWidth=2;rounded=0;dashPattern=1 2;strokeColor=#9a9996;" edge="1" parent="1">
          <mxGeometry width="50" height="50" relative="1" as="geometry">
            <mxPoint x="527" y="560" as="sourcePoint" />
            <mxPoint x="527" y="370" as="targetPoint" />
          </mxGeometry>
        </mxCell>
        <mxCell id="piLYaQQvXKSqUHdPzKFF-16" value="" style="endArrow=none;dashed=1;html=1;strokeWidth=2;rounded=0;dashPattern=1 2;strokeColor=#9a9996;" edge="1" parent="1">
          <mxGeometry width="50" height="50" relative="1" as="geometry">
            <mxPoint x="310" y="560" as="sourcePoint" />
            <mxPoint x="530" y="560" as="targetPoint" />
          </mxGeometry>
        </mxCell>
        <mxCell id="piLYaQQvXKSqUHdPzKFF-17" value="" style="endArrow=none;dashed=1;html=1;strokeWidth=2;rounded=0;dashPattern=1 2;strokeColor=#9a9996;" edge="1" parent="1">
          <mxGeometry width="50" height="50" relative="1" as="geometry">
            <mxPoint x="310" y="370" as="sourcePoint" />
            <mxPoint x="530" y="370" as="targetPoint" />
          </mxGeometry>
        </mxCell>
      </root>
    </mxGraphModel>
  </diagram>
</mxfile>
